<svg xmlns="http://www.w3.org/2000/svg" xmlns:xlink="http://www.w3.org/1999/xlink" width="500" zoomAndPan="magnify" viewBox="0 0 375 374.999991" height="500" preserveAspectRatio="xMidYMid meet" version="1.0"><defs><g/><clipPath id="5514d0d607"><path d="M 171 128.449219 L 232.675781 128.449219 L 232.675781 159.199219 L 171 159.199219 Z M 171 128.449219 " clip-rule="nonzero"/></clipPath><clipPath id="2c3bd13bb7"><path d="M 158.039062 128.675781 L 199.601562 128.675781 L 199.601562 159.199219 L 158.039062 159.199219 Z M 158.039062 128.675781 " clip-rule="nonzero"/></clipPath><clipPath id="e48064993b"><path d="M 160 138 L 190 138 L 190 159.199219 L 160 159.199219 Z M 160 138 " clip-rule="nonzero"/></clipPath><clipPath id="82d3147cb5"><path d="M 165 212.242188 L 232.671875 212.242188 L 232.671875 246.433594 L 165 246.433594 Z M 165 212.242188 " clip-rule="nonzero"/></clipPath><clipPath id="fc5ebd6233"><path d="M 150.183594 212.242188 L 196.289062 212.242188 L 196.289062 246.433594 L 150.183594 246.433594 Z M 150.183594 212.242188 " clip-rule="nonzero"/></clipPath><clipPath id="461cfd210d"><path d="M 153 212.242188 L 186 212.242188 L 186 233 L 153 233 Z M 153 212.242188 " clip-rule="nonzero"/></clipPath></defs><rect x="-37.5" width="450" fill="#ffffff" y="-37.499999" height="449.999989" fill-opacity="1"/><rect x="-37.5" width="450" fill="#ffffff" y="-37.499999" height="449.999989" fill-opacity="1"/><rect x="-37.5" width="450" fill="#ffffff" y="-37.499999" height="449.999989" fill-opacity="1"/><g clip-path="url(#5514d0d607)"><path fill="#f40808" d="M 198.148438 203.203125 C 201.835938 197.117188 204.972656 190.480469 207.367188 183.605469 L 225.632812 183.605469 L 225.425781 184.132812 L 224.96875 185.226562 L 214.058594 185.152344 L 223.976562 187.5 L 223.816406 187.855469 L 222.972656 189.648438 L 222.105469 191.386719 L 221.214844 193.070312 L 220.304688 194.699219 L 220.222656 194.835938 L 209.722656 194.765625 L 218.949219 196.949219 L 218.433594 197.773438 L 217.472656 199.21875 L 216.5 200.59375 L 215.515625 201.898438 L 215.269531 202.203125 L 204.9375 202.132812 L 213.609375 204.183594 L 213.519531 204.289062 L 212.511719 205.371094 L 211.5 206.371094 L 210.484375 207.289062 L 209.46875 208.121094 L 208.457031 208.867188 L 207.445312 209.519531 L 206.441406 210.082031 L 205.441406 210.546875 L 204.449219 210.914062 L 203.46875 211.179688 L 202.5 211.34375 L 198.148438 211.351562 Z M 198.148438 183.605469 L 198.148438 195.070312 C 200.199219 191.398438 202.050781 187.558594 203.664062 183.605469 Z M 198.148438 128.5 L 222.859375 128.453125 L 223.75 128.613281 L 224.597656 128.875 L 225.410156 129.238281 L 226.183594 129.699219 L 226.914062 130.257812 L 227.601562 130.910156 L 228.253906 131.648438 L 228.859375 132.480469 L 229.175781 132.992188 L 220.140625 135.03125 L 230.132812 134.816406 L 230.421875 135.46875 L 230.855469 136.625 L 231.242188 137.855469 L 231.585938 139.160156 L 231.65625 139.472656 L 221.503906 141.769531 L 232.0625 141.539062 L 232.136719 141.972656 L 232.34375 143.476562 L 232.5 145.042969 L 232.613281 146.671875 L 232.675781 148.351562 L 232.675781 148.574219 L 221.785156 149.820312 L 232.671875 150.890625 L 232.652344 151.878906 L 232.566406 153.714844 L 232.433594 155.601562 L 232.371094 156.25 L 212.476562 156.25 C 212.585938 148.320312 211.304688 141.484375 208.902344 136.039062 C 210.492188 141.753906 211.074219 148.566406 210.433594 156.25 L 201.046875 156.25 L 201.101562 155.660156 L 201.238281 153.777344 L 201.320312 151.9375 L 201.355469 150.152344 L 201.34375 148.414062 L 201.28125 146.730469 L 201.171875 145.105469 L 201.011719 143.539062 L 200.804688 142.035156 L 200.554688 140.59375 L 200.257812 139.21875 L 199.914062 137.917969 L 199.523438 136.6875 L 199.089844 135.53125 L 198.613281 134.453125 L 198.148438 133.566406 Z M 198.148438 195.070312 C 194.8125 201.046875 190.945312 206.574219 186.726562 211.371094 L 171.167969 211.402344 L 172.136719 211.238281 L 173.117188 210.972656 L 174.109375 210.609375 L 175.109375 210.140625 L 176.113281 209.582031 L 177.125 208.925781 L 178.140625 208.183594 L 179.152344 207.347656 L 180.167969 206.433594 L 181.179688 205.429688 L 182.1875 204.351562 L 183.1875 203.191406 L 184.183594 201.957031 L 185.167969 200.652344 L 186.140625 199.277344 L 187.101562 197.835938 L 188.046875 196.328125 L 188.972656 194.757812 L 189.882812 193.132812 L 190.773438 191.445312 L 191.640625 189.707031 L 192.484375 187.917969 L 193.304688 186.078125 L 194.09375 184.195312 L 194.324219 183.605469 L 198.148438 183.605469 Z M 198.148438 211.351562 L 198.148438 203.203125 C 196.425781 206.054688 194.582031 208.785156 192.636719 211.359375 Z M 191.527344 128.515625 L 198.148438 128.5 L 198.148438 133.566406 L 198.089844 133.453125 L 197.527344 132.539062 L 196.921875 131.710938 L 196.273438 130.96875 L 195.582031 130.316406 L 194.851562 129.761719 L 194.078125 129.296875 L 193.269531 128.933594 L 192.417969 128.671875 L 191.527344 128.515625 " fill-opacity="1" fill-rule="evenodd"/></g><g clip-path="url(#2c3bd13bb7)"><path fill="#f40808" d="M 192.648438 183.605469 C 186.179688 199.933594 176.46875 211.683594 168.4375 211.699219 C 161.496094 211.714844 157.609375 202.957031 157.679688 190.046875 C 158.199219 199.289062 161.398438 205.351562 166.710938 205.339844 C 173.171875 205.328125 180.910156 196.351562 186.363281 183.605469 Z M 167.410156 150.417969 C 173.6875 137.496094 181.878906 128.71875 188.824219 128.703125 C 196.773438 128.6875 200.71875 140.183594 199.292969 156.25 L 192.988281 156.25 C 193.671875 143.78125 190.34375 135.066406 183.96875 135.078125 C 178.65625 135.085938 172.472656 141.167969 167.410156 150.417969 " fill-opacity="1" fill-rule="evenodd"/></g><g clip-path="url(#e48064993b)"><path fill="#f40808" d="M 167.140625 156.25 C 171.714844 145.636719 177.917969 138.488281 182.929688 138.96875 C 187.535156 139.410156 189.933594 146.195312 189.617188 155.820312 C 189.464844 148.890625 187.46875 144.164062 183.941406 143.824219 C 180.058594 143.453125 175.324219 148.496094 171.582031 156.25 Z M 182.335938 184.734375 C 177.90625 193.964844 172.285156 199.976562 167.675781 199.535156 C 163.21875 199.105469 160.828125 192.738281 160.964844 183.605469 L 165.367188 183.605469 C 165.605469 190.257812 167.589844 194.769531 171.03125 195.097656 C 174.558594 195.4375 178.785156 191.308594 182.335938 184.734375 " fill-opacity="1" fill-rule="evenodd"/></g><g fill="#000000" fill-opacity="1"><g transform="translate(67.765444, 190.921862)"><g><path d="M 7.15625 0.28125 C 5.1875 0.28125 3.625 -0.226562 2.46875 -1.25 C 1.320312 -2.269531 0.75 -3.628906 0.75 -5.328125 C 0.75 -5.492188 0.773438 -5.78125 0.828125 -6.1875 L 0.96875 -7.25 C 0.988281 -7.414062 1.050781 -7.539062 1.15625 -7.625 C 1.257812 -7.71875 1.378906 -7.765625 1.515625 -7.765625 L 6.734375 -7.765625 C 6.878906 -7.765625 6.988281 -7.71875 7.0625 -7.625 C 7.144531 -7.539062 7.175781 -7.414062 7.15625 -7.25 L 7.078125 -6.5 C 7.035156 -6.132812 7.082031 -5.835938 7.21875 -5.609375 C 7.351562 -5.378906 7.5625 -5.265625 7.84375 -5.265625 C 8.132812 -5.265625 8.382812 -5.390625 8.59375 -5.640625 C 8.800781 -5.890625 8.90625 -6.195312 8.90625 -6.5625 C 8.90625 -6.90625 8.738281 -7.257812 8.40625 -7.625 C 8.070312 -8 7.4375 -8.5625 6.5 -9.3125 C 5.582031 -10.070312 4.820312 -10.742188 4.21875 -11.328125 C 3.625 -11.910156 3.109375 -12.628906 2.671875 -13.484375 C 2.242188 -14.347656 2.03125 -15.332031 2.03125 -16.4375 C 2.03125 -16.644531 2.050781 -17 2.09375 -17.5 C 2.34375 -19.539062 3.191406 -21.191406 4.640625 -22.453125 C 6.085938 -23.710938 7.890625 -24.34375 10.046875 -24.34375 C 12.015625 -24.34375 13.566406 -23.816406 14.703125 -22.765625 C 15.835938 -21.710938 16.40625 -20.289062 16.40625 -18.5 C 16.40625 -18.289062 16.378906 -17.957031 16.328125 -17.5 L 16.234375 -16.75 C 16.210938 -16.582031 16.148438 -16.453125 16.046875 -16.359375 C 15.941406 -16.273438 15.820312 -16.234375 15.6875 -16.234375 L 10.484375 -16.234375 C 10.347656 -16.234375 10.238281 -16.273438 10.15625 -16.359375 C 10.082031 -16.453125 10.054688 -16.582031 10.078125 -16.75 L 10.171875 -17.640625 C 10.203125 -17.984375 10.140625 -18.265625 9.984375 -18.484375 C 9.835938 -18.703125 9.628906 -18.8125 9.359375 -18.8125 C 9.035156 -18.8125 8.769531 -18.671875 8.5625 -18.390625 C 8.351562 -18.117188 8.25 -17.753906 8.25 -17.296875 C 8.25 -16.910156 8.410156 -16.507812 8.734375 -16.09375 C 9.054688 -15.675781 9.65625 -15.101562 10.53125 -14.375 C 11.695312 -13.382812 12.585938 -12.585938 13.203125 -11.984375 C 13.828125 -11.378906 14.316406 -10.710938 14.671875 -9.984375 C 15.023438 -9.265625 15.203125 -8.445312 15.203125 -7.53125 C 15.203125 -7.34375 15.175781 -7.019531 15.125 -6.5625 C 14.851562 -4.476562 13.988281 -2.816406 12.53125 -1.578125 C 11.082031 -0.335938 9.289062 0.28125 7.15625 0.28125 Z M 7.15625 0.28125 "/></g></g></g><g fill="#000000" fill-opacity="1"><g transform="translate(84.997448, 190.921862)"><g><path d="M 17.84375 -24.078125 C 17.988281 -24.078125 18.097656 -24.03125 18.171875 -23.9375 C 18.253906 -23.84375 18.285156 -23.71875 18.265625 -23.5625 L 17.71875 -19.046875 C 17.6875 -18.890625 17.625 -18.765625 17.53125 -18.671875 C 17.445312 -18.578125 17.320312 -18.53125 17.15625 -18.53125 L 13.171875 -18.53125 C 13.054688 -18.53125 13 -18.472656 13 -18.359375 L 10.796875 -0.515625 C 10.773438 -0.359375 10.71875 -0.234375 10.625 -0.140625 C 10.53125 -0.046875 10.40625 0 10.25 0 L 4.984375 0 C 4.828125 0 4.707031 -0.046875 4.625 -0.140625 C 4.539062 -0.234375 4.515625 -0.359375 4.546875 -0.515625 L 6.734375 -18.359375 C 6.734375 -18.472656 6.675781 -18.53125 6.5625 -18.53125 L 2.71875 -18.53125 C 2.550781 -18.53125 2.425781 -18.578125 2.34375 -18.671875 C 2.269531 -18.765625 2.242188 -18.890625 2.265625 -19.046875 L 2.8125 -23.5625 C 2.84375 -23.71875 2.90625 -23.84375 3 -23.9375 C 3.101562 -24.03125 3.238281 -24.078125 3.40625 -24.078125 Z M 17.84375 -24.078125 "/></g></g></g><g fill="#000000" fill-opacity="1"><g transform="translate(103.433268, 190.921862)"><g/></g></g><g fill="#000000" fill-opacity="1"><g transform="translate(111.894683, 190.921862)"><g><path d="M 10.703125 0 C 10.378906 0 10.226562 -0.160156 10.25 -0.484375 L 10.171875 -3.09375 C 10.203125 -3.132812 10.191406 -3.171875 10.140625 -3.203125 C 10.097656 -3.242188 10.050781 -3.265625 10 -3.265625 L 7.015625 -3.265625 C 6.898438 -3.265625 6.820312 -3.207031 6.78125 -3.09375 L 6.125 -0.484375 C 6.050781 -0.160156 5.851562 0 5.53125 0 L 0.3125 0 C -0.03125 0 -0.15625 -0.179688 -0.0625 -0.546875 L 7.5 -23.625 C 7.59375 -23.925781 7.796875 -24.078125 8.109375 -24.078125 L 14.203125 -24.078125 C 14.523438 -24.078125 14.695312 -23.925781 14.71875 -23.625 L 16.609375 -0.546875 L 16.609375 -0.484375 C 16.609375 -0.160156 16.4375 0 16.09375 0 Z M 8.1875 -8.390625 C 8.132812 -8.273438 8.164062 -8.21875 8.28125 -8.21875 L 9.90625 -8.21875 C 9.96875 -8.21875 10.023438 -8.273438 10.078125 -8.390625 L 9.9375 -14.75 C 9.9375 -14.84375 9.90625 -14.882812 9.84375 -14.875 C 9.789062 -14.863281 9.765625 -14.820312 9.765625 -14.75 Z M 8.1875 -8.390625 "/></g></g></g><g fill="#000000" fill-opacity="1"><g transform="translate(131.396725, 190.921862)"><g><path d="M 7.328125 0.28125 C 5.359375 0.28125 3.796875 -0.28125 2.640625 -1.40625 C 1.492188 -2.53125 0.921875 -4.046875 0.921875 -5.953125 C 0.921875 -6.203125 0.945312 -6.601562 1 -7.15625 L 3.03125 -23.5625 C 3.050781 -23.71875 3.113281 -23.84375 3.21875 -23.9375 C 3.320312 -24.03125 3.441406 -24.078125 3.578125 -24.078125 L 8.875 -24.078125 C 9.007812 -24.078125 9.113281 -24.03125 9.1875 -23.9375 C 9.269531 -23.84375 9.300781 -23.71875 9.28125 -23.5625 L 7.21875 -6.53125 C 7.175781 -6.144531 7.222656 -5.835938 7.359375 -5.609375 C 7.492188 -5.378906 7.710938 -5.265625 8.015625 -5.265625 C 8.304688 -5.265625 8.550781 -5.378906 8.75 -5.609375 C 8.945312 -5.835938 9.066406 -6.144531 9.109375 -6.53125 L 11.21875 -23.5625 C 11.238281 -23.71875 11.289062 -23.84375 11.375 -23.9375 C 11.46875 -24.03125 11.597656 -24.078125 11.765625 -24.078125 L 17.015625 -24.078125 C 17.179688 -24.078125 17.300781 -24.03125 17.375 -23.9375 C 17.457031 -23.84375 17.488281 -23.71875 17.46875 -23.5625 L 15.4375 -7.15625 C 15.257812 -5.6875 14.800781 -4.390625 14.0625 -3.265625 C 13.332031 -2.140625 12.378906 -1.265625 11.203125 -0.640625 C 10.035156 -0.0234375 8.742188 0.28125 7.328125 0.28125 Z M 7.328125 0.28125 "/></g></g></g><g fill="#000000" fill-opacity="1"><g transform="translate(149.247831, 190.921862)"><g><path d="M 7.25 0.28125 C 5.238281 0.28125 3.648438 -0.25 2.484375 -1.3125 C 1.328125 -2.382812 0.75 -3.835938 0.75 -5.671875 C 0.75 -5.878906 0.773438 -6.234375 0.828125 -6.734375 L 2.125 -17.375 C 2.382812 -19.5 3.257812 -21.191406 4.75 -22.453125 C 6.238281 -23.710938 8.082031 -24.34375 10.28125 -24.34375 C 12.28125 -24.34375 13.867188 -23.800781 15.046875 -22.71875 C 16.222656 -21.644531 16.8125 -20.191406 16.8125 -18.359375 C 16.8125 -18.109375 16.789062 -17.753906 16.75 -17.296875 L 16.609375 -16.15625 C 16.535156 -15.8125 16.34375 -15.640625 16.03125 -15.640625 L 10.765625 -15.640625 C 10.609375 -15.640625 10.488281 -15.6875 10.40625 -15.78125 C 10.320312 -15.875 10.289062 -16 10.3125 -16.15625 L 10.484375 -17.375 C 10.535156 -17.800781 10.476562 -18.144531 10.3125 -18.40625 C 10.15625 -18.675781 9.925781 -18.8125 9.625 -18.8125 C 9.300781 -18.8125 9.023438 -18.675781 8.796875 -18.40625 C 8.566406 -18.144531 8.429688 -17.800781 8.390625 -17.375 L 7.078125 -6.703125 C 7.035156 -6.265625 7.09375 -5.914062 7.25 -5.65625 C 7.414062 -5.394531 7.644531 -5.265625 7.9375 -5.265625 C 8.257812 -5.265625 8.53125 -5.394531 8.75 -5.65625 C 8.96875 -5.914062 9.097656 -6.265625 9.140625 -6.703125 L 9.390625 -8.421875 C 9.390625 -8.535156 9.332031 -8.59375 9.21875 -8.59375 L 8.9375 -8.59375 C 8.78125 -8.59375 8.660156 -8.640625 8.578125 -8.734375 C 8.492188 -8.828125 8.46875 -8.953125 8.5 -9.109375 L 8.96875 -13.0625 C 9 -13.226562 9.0625 -13.351562 9.15625 -13.4375 C 9.257812 -13.53125 9.382812 -13.578125 9.53125 -13.578125 L 15.78125 -13.578125 C 15.945312 -13.578125 16.066406 -13.53125 16.140625 -13.4375 C 16.222656 -13.351562 16.253906 -13.226562 16.234375 -13.0625 L 15.4375 -6.734375 C 15.1875 -4.609375 14.3125 -2.90625 12.8125 -1.625 C 11.3125 -0.351562 9.457031 0.28125 7.25 0.28125 Z M 7.25 0.28125 "/></g></g></g><g fill="#000000" fill-opacity="1"><g transform="translate(166.995762, 190.921862)"><g><path d="M 7.328125 0.28125 C 5.359375 0.28125 3.796875 -0.28125 2.640625 -1.40625 C 1.492188 -2.53125 0.921875 -4.046875 0.921875 -5.953125 C 0.921875 -6.203125 0.945312 -6.601562 1 -7.15625 L 3.03125 -23.5625 C 3.050781 -23.71875 3.113281 -23.84375 3.21875 -23.9375 C 3.320312 -24.03125 3.441406 -24.078125 3.578125 -24.078125 L 8.875 -24.078125 C 9.007812 -24.078125 9.113281 -24.03125 9.1875 -23.9375 C 9.269531 -23.84375 9.300781 -23.71875 9.28125 -23.5625 L 7.21875 -6.53125 C 7.175781 -6.144531 7.222656 -5.835938 7.359375 -5.609375 C 7.492188 -5.378906 7.710938 -5.265625 8.015625 -5.265625 C 8.304688 -5.265625 8.550781 -5.378906 8.75 -5.609375 C 8.945312 -5.835938 9.066406 -6.144531 9.109375 -6.53125 L 11.21875 -23.5625 C 11.238281 -23.71875 11.289062 -23.84375 11.375 -23.9375 C 11.46875 -24.03125 11.597656 -24.078125 11.765625 -24.078125 L 17.015625 -24.078125 C 17.179688 -24.078125 17.300781 -24.03125 17.375 -23.9375 C 17.457031 -23.84375 17.488281 -23.71875 17.46875 -23.5625 L 15.4375 -7.15625 C 15.257812 -5.6875 14.800781 -4.390625 14.0625 -3.265625 C 13.332031 -2.140625 12.378906 -1.265625 11.203125 -0.640625 C 10.035156 -0.0234375 8.742188 0.28125 7.328125 0.28125 Z M 7.328125 0.28125 "/></g></g></g><g fill="#000000" fill-opacity="1"><g transform="translate(184.846873, 190.921862)"><g><path d="M 7.15625 0.28125 C 5.1875 0.28125 3.625 -0.226562 2.46875 -1.25 C 1.320312 -2.269531 0.75 -3.628906 0.75 -5.328125 C 0.75 -5.492188 0.773438 -5.78125 0.828125 -6.1875 L 0.96875 -7.25 C 0.988281 -7.414062 1.050781 -7.539062 1.15625 -7.625 C 1.257812 -7.71875 1.378906 -7.765625 1.515625 -7.765625 L 6.734375 -7.765625 C 6.878906 -7.765625 6.988281 -7.71875 7.0625 -7.625 C 7.144531 -7.539062 7.175781 -7.414062 7.15625 -7.25 L 7.078125 -6.5 C 7.035156 -6.132812 7.082031 -5.835938 7.21875 -5.609375 C 7.351562 -5.378906 7.5625 -5.265625 7.84375 -5.265625 C 8.132812 -5.265625 8.382812 -5.390625 8.59375 -5.640625 C 8.800781 -5.890625 8.90625 -6.195312 8.90625 -6.5625 C 8.90625 -6.90625 8.738281 -7.257812 8.40625 -7.625 C 8.070312 -8 7.4375 -8.5625 6.5 -9.3125 C 5.582031 -10.070312 4.820312 -10.742188 4.21875 -11.328125 C 3.625 -11.910156 3.109375 -12.628906 2.671875 -13.484375 C 2.242188 -14.347656 2.03125 -15.332031 2.03125 -16.4375 C 2.03125 -16.644531 2.050781 -17 2.09375 -17.5 C 2.34375 -19.539062 3.191406 -21.191406 4.640625 -22.453125 C 6.085938 -23.710938 7.890625 -24.34375 10.046875 -24.34375 C 12.015625 -24.34375 13.566406 -23.816406 14.703125 -22.765625 C 15.835938 -21.710938 16.40625 -20.289062 16.40625 -18.5 C 16.40625 -18.289062 16.378906 -17.957031 16.328125 -17.5 L 16.234375 -16.75 C 16.210938 -16.582031 16.148438 -16.453125 16.046875 -16.359375 C 15.941406 -16.273438 15.820312 -16.234375 15.6875 -16.234375 L 10.484375 -16.234375 C 10.347656 -16.234375 10.238281 -16.273438 10.15625 -16.359375 C 10.082031 -16.453125 10.054688 -16.582031 10.078125 -16.75 L 10.171875 -17.640625 C 10.203125 -17.984375 10.140625 -18.265625 9.984375 -18.484375 C 9.835938 -18.703125 9.628906 -18.8125 9.359375 -18.8125 C 9.035156 -18.8125 8.769531 -18.671875 8.5625 -18.390625 C 8.351562 -18.117188 8.25 -17.753906 8.25 -17.296875 C 8.25 -16.910156 8.410156 -16.507812 8.734375 -16.09375 C 9.054688 -15.675781 9.65625 -15.101562 10.53125 -14.375 C 11.695312 -13.382812 12.585938 -12.585938 13.203125 -11.984375 C 13.828125 -11.378906 14.316406 -10.710938 14.671875 -9.984375 C 15.023438 -9.265625 15.203125 -8.445312 15.203125 -7.53125 C 15.203125 -7.34375 15.175781 -7.019531 15.125 -6.5625 C 14.851562 -4.476562 13.988281 -2.816406 12.53125 -1.578125 C 11.082031 -0.335938 9.289062 0.28125 7.15625 0.28125 Z M 7.15625 0.28125 "/></g></g></g><g fill="#000000" fill-opacity="1"><g transform="translate(202.078882, 190.921862)"><g><path d="M 17.84375 -24.078125 C 17.988281 -24.078125 18.097656 -24.03125 18.171875 -23.9375 C 18.253906 -23.84375 18.285156 -23.71875 18.265625 -23.5625 L 17.71875 -19.046875 C 17.6875 -18.890625 17.625 -18.765625 17.53125 -18.671875 C 17.445312 -18.578125 17.320312 -18.53125 17.15625 -18.53125 L 13.171875 -18.53125 C 13.054688 -18.53125 13 -18.472656 13 -18.359375 L 10.796875 -0.515625 C 10.773438 -0.359375 10.71875 -0.234375 10.625 -0.140625 C 10.53125 -0.046875 10.40625 0 10.25 0 L 4.984375 0 C 4.828125 0 4.707031 -0.046875 4.625 -0.140625 C 4.539062 -0.234375 4.515625 -0.359375 4.546875 -0.515625 L 6.734375 -18.359375 C 6.734375 -18.472656 6.675781 -18.53125 6.5625 -18.53125 L 2.71875 -18.53125 C 2.550781 -18.53125 2.425781 -18.578125 2.34375 -18.671875 C 2.269531 -18.765625 2.242188 -18.890625 2.265625 -19.046875 L 2.8125 -23.5625 C 2.84375 -23.71875 2.90625 -23.84375 3 -23.9375 C 3.101562 -24.03125 3.238281 -24.078125 3.40625 -24.078125 Z M 17.84375 -24.078125 "/></g></g></g><g fill="#000000" fill-opacity="1"><g transform="translate(220.514706, 190.921862)"><g><path d="M 0.6875 0 C 0.550781 0 0.441406 -0.046875 0.359375 -0.140625 C 0.273438 -0.234375 0.25 -0.359375 0.28125 -0.515625 L 3.09375 -23.5625 C 3.113281 -23.71875 3.175781 -23.84375 3.28125 -23.9375 C 3.382812 -24.03125 3.503906 -24.078125 3.640625 -24.078125 L 8.9375 -24.078125 C 9.070312 -24.078125 9.179688 -24.03125 9.265625 -23.9375 C 9.347656 -23.84375 9.378906 -23.71875 9.359375 -23.5625 L 6.53125 -0.515625 C 6.507812 -0.359375 6.445312 -0.234375 6.34375 -0.140625 C 6.238281 -0.046875 6.117188 0 5.984375 0 Z M 0.6875 0 "/></g></g></g><g fill="#000000" fill-opacity="1"><g transform="translate(230.317508, 190.921862)"><g><path d="M 12.765625 -23.5625 C 12.785156 -23.71875 12.847656 -23.84375 12.953125 -23.9375 C 13.054688 -24.03125 13.1875 -24.078125 13.34375 -24.078125 L 18.53125 -24.078125 C 18.695312 -24.078125 18.816406 -24.03125 18.890625 -23.9375 C 18.972656 -23.84375 19.003906 -23.71875 18.984375 -23.5625 L 16.125 -0.515625 C 16.101562 -0.359375 16.046875 -0.234375 15.953125 -0.140625 C 15.859375 -0.046875 15.734375 0 15.578125 0 L 9.625 0 C 9.351562 0 9.191406 -0.148438 9.140625 -0.453125 L 7.84375 -11 C 7.84375 -11.070312 7.816406 -11.109375 7.765625 -11.109375 C 7.722656 -11.109375 7.703125 -11.070312 7.703125 -11 L 6.46875 -0.515625 C 6.445312 -0.359375 6.382812 -0.234375 6.28125 -0.140625 C 6.175781 -0.046875 6.054688 0 5.921875 0 L 0.6875 0 C 0.550781 0 0.441406 -0.046875 0.359375 -0.140625 C 0.273438 -0.234375 0.25 -0.359375 0.28125 -0.515625 L 3.09375 -23.5625 C 3.113281 -23.71875 3.175781 -23.84375 3.28125 -23.9375 C 3.382812 -24.03125 3.503906 -24.078125 3.640625 -24.078125 L 9.53125 -24.078125 C 9.800781 -24.078125 9.957031 -23.925781 10 -23.625 L 11.34375 -13 C 11.34375 -12.925781 11.363281 -12.898438 11.40625 -12.921875 C 11.457031 -12.953125 11.492188 -12.988281 11.515625 -13.03125 Z M 12.765625 -23.5625 "/></g></g></g><g fill="#000000" fill-opacity="1"><g transform="translate(249.716375, 190.921862)"><g><path d="M 15.890625 -19.046875 C 15.867188 -18.890625 15.804688 -18.765625 15.703125 -18.671875 C 15.597656 -18.578125 15.460938 -18.53125 15.296875 -18.53125 L 8.90625 -18.53125 C 8.789062 -18.53125 8.734375 -18.472656 8.734375 -18.359375 L 8.328125 -15 C 8.273438 -14.882812 8.316406 -14.828125 8.453125 -14.828125 L 11.796875 -14.828125 C 11.953125 -14.828125 12.070312 -14.78125 12.15625 -14.6875 C 12.238281 -14.59375 12.269531 -14.46875 12.25 -14.3125 L 11.6875 -9.796875 C 11.625 -9.453125 11.429688 -9.28125 11.109375 -9.28125 L 7.765625 -9.28125 C 7.648438 -9.28125 7.59375 -9.222656 7.59375 -9.109375 L 7.1875 -5.703125 C 7.144531 -5.585938 7.191406 -5.53125 7.328125 -5.53125 L 13.71875 -5.53125 C 13.882812 -5.53125 14.003906 -5.484375 14.078125 -5.390625 C 14.160156 -5.304688 14.191406 -5.179688 14.171875 -5.015625 L 13.625 -0.515625 C 13.59375 -0.359375 13.523438 -0.234375 13.421875 -0.140625 C 13.328125 -0.046875 13.195312 0 13.03125 0 L 0.6875 0 C 0.550781 0 0.441406 -0.046875 0.359375 -0.140625 C 0.273438 -0.234375 0.25 -0.359375 0.28125 -0.515625 L 3.09375 -23.5625 C 3.113281 -23.71875 3.175781 -23.84375 3.28125 -23.9375 C 3.382812 -24.03125 3.503906 -24.078125 3.640625 -24.078125 L 15.984375 -24.078125 C 16.148438 -24.078125 16.269531 -24.03125 16.34375 -23.9375 C 16.425781 -23.84375 16.457031 -23.71875 16.4375 -23.5625 Z M 15.890625 -19.046875 "/></g></g></g><g clip-path="url(#82d3147cb5)"><path fill="#f40808" d="M 194.691406 237.019531 C 198.746094 230.273438 202.199219 222.921875 204.832031 215.300781 L 224.921875 215.300781 L 224.695312 215.886719 L 224.191406 217.097656 L 212.191406 217.011719 L 223.101562 219.617188 L 222.925781 220.011719 L 221.996094 221.996094 L 221.042969 223.921875 L 220.066406 225.789062 L 219.0625 227.59375 L 218.972656 227.746094 L 207.425781 227.664062 L 217.574219 230.085938 L 217.003906 231.003906 L 215.945312 232.601562 L 214.875 234.125 L 213.792969 235.570312 L 213.523438 235.910156 L 202.15625 235.832031 L 211.699219 238.105469 L 211.597656 238.222656 L 210.488281 239.417969 L 209.375 240.527344 L 208.261719 241.546875 L 207.144531 242.46875 L 206.03125 243.292969 L 204.917969 244.019531 L 203.8125 244.640625 L 202.710938 245.15625 L 201.621094 245.5625 L 200.542969 245.855469 L 199.476562 246.035156 L 194.691406 246.046875 Z M 194.691406 215.300781 L 194.691406 228.003906 C 196.949219 223.9375 198.984375 219.679688 200.757812 215.300781 Z M 194.691406 154.238281 L 221.871094 154.1875 L 222.851562 154.363281 L 223.785156 154.652344 L 224.679688 155.054688 L 225.527344 155.566406 L 226.332031 156.183594 L 227.089844 156.90625 L 227.804688 157.726562 L 228.472656 158.644531 L 228.820312 159.214844 L 218.878906 161.476562 L 229.871094 161.238281 L 230.191406 161.960938 L 230.667969 163.242188 L 231.09375 164.605469 L 231.472656 166.050781 L 231.546875 166.398438 L 220.378906 168.9375 L 231.996094 168.6875 L 232.078125 169.167969 L 232.304688 170.832031 L 232.480469 172.570312 L 232.601562 174.371094 L 232.667969 176.238281 L 232.671875 176.480469 L 220.691406 177.863281 L 232.667969 179.050781 L 232.644531 180.144531 L 232.554688 182.179688 L 232.402344 184.265625 L 232.335938 184.988281 L 210.449219 184.988281 C 210.574219 176.199219 209.164062 168.625 206.519531 162.589844 C 208.269531 168.921875 208.90625 176.472656 208.203125 184.988281 L 197.878906 184.988281 L 197.941406 184.335938 L 198.089844 182.246094 L 198.183594 180.210938 L 198.21875 178.226562 L 198.207031 176.304688 L 198.136719 174.4375 L 198.015625 172.636719 L 197.839844 170.902344 L 197.613281 169.234375 L 197.335938 167.636719 L 197.007812 166.117188 L 196.632812 164.671875 L 196.203125 163.308594 L 195.726562 162.027344 L 195.203125 160.832031 L 194.691406 159.851562 Z M 194.691406 228.003906 C 191.019531 234.628906 186.765625 240.753906 182.125 246.070312 L 165.015625 246.101562 L 166.078125 245.921875 L 167.15625 245.628906 L 168.246094 245.222656 L 169.347656 244.707031 L 170.453125 244.085938 L 171.566406 243.359375 L 172.679688 242.535156 L 173.796875 241.613281 L 174.914062 240.59375 L 176.023438 239.484375 L 177.132812 238.289062 L 178.234375 237.003906 L 179.328125 235.636719 L 180.414062 234.191406 L 181.484375 232.667969 L 182.539062 231.070312 L 183.578125 229.398438 L 184.597656 227.660156 L 185.601562 225.855469 L 186.578125 223.988281 L 187.535156 222.0625 L 188.460938 220.078125 L 189.359375 218.042969 L 190.230469 215.953125 L 190.484375 215.300781 L 194.691406 215.300781 Z M 194.691406 246.046875 L 194.691406 237.019531 C 192.796875 240.175781 190.765625 243.203125 188.628906 246.058594 Z M 187.40625 154.253906 L 194.691406 154.238281 L 194.691406 159.851562 L 194.628906 159.726562 L 194.007812 158.714844 L 193.339844 157.792969 L 192.628906 156.972656 L 191.867188 156.25 L 191.0625 155.632812 L 190.214844 155.121094 L 189.324219 154.71875 L 188.386719 154.429688 L 187.40625 154.253906 " fill-opacity="1" fill-rule="evenodd"/></g><g clip-path="url(#fc5ebd6233)"><path fill="#f40808" d="M 188.640625 215.300781 C 181.523438 233.394531 170.84375 246.417969 162.007812 246.433594 C 154.371094 246.449219 150.097656 236.746094 150.175781 222.4375 C 150.746094 232.679688 154.265625 239.398438 160.109375 239.386719 C 167.214844 239.371094 175.726562 229.425781 181.726562 215.300781 Z M 160.878906 178.527344 C 167.78125 164.207031 176.796875 154.476562 184.433594 154.464844 C 193.179688 154.445312 197.515625 167.183594 195.953125 184.988281 L 189.015625 184.988281 C 189.765625 171.171875 186.105469 161.511719 179.09375 161.523438 C 173.25 161.535156 166.449219 168.273438 160.878906 178.527344 " fill-opacity="1" fill-rule="evenodd"/></g><g clip-path="url(#461cfd210d)"><path fill="#f40808" d="M 160.582031 184.988281 C 165.613281 173.226562 172.4375 165.304688 177.949219 165.835938 C 183.015625 166.328125 185.65625 173.84375 185.308594 184.507812 C 185.140625 176.832031 182.941406 171.59375 179.0625 171.21875 C 174.792969 170.804688 169.585938 176.394531 165.464844 184.988281 Z M 177.300781 216.554688 C 172.421875 226.78125 166.242188 233.445312 161.171875 232.953125 C 156.269531 232.476562 153.640625 225.421875 153.789062 215.300781 L 158.632812 215.300781 C 158.890625 222.675781 161.074219 227.671875 164.863281 228.039062 C 168.742188 228.414062 173.390625 223.835938 177.300781 216.554688 " fill-opacity="1" fill-rule="evenodd"/></g><g fill="#000000" fill-opacity="1"><g transform="translate(187.499992, 209.798703)"><g><path d="M 7.296875 0 L 5.546875 0 L 5.390625 -1.9375 L 2.15625 -1.9375 L 1.046875 0 L -0.671875 0 L 4.34375 -8.4375 L 6.484375 -8.4375 Z M 5.28125 -3.34375 L 5.03125 -6.671875 L 4.875 -6.671875 L 2.96875 -3.34375 Z M 5.28125 -3.34375 "/></g></g></g><g fill="#000000" fill-opacity="1"><g transform="translate(195.364744, 209.798703)"><g><path d="M 3.640625 0.125 C 2.484375 0.125 1.691406 -0.148438 1.265625 -0.703125 C 0.847656 -1.253906 0.769531 -2.070312 1.03125 -3.15625 L 2.359375 -8.4375 L 3.984375 -8.4375 L 2.671875 -3.171875 C 2.523438 -2.554688 2.5625 -2.09375 2.78125 -1.78125 C 3 -1.476562 3.410156 -1.328125 4.015625 -1.328125 C 5.203125 -1.328125 5.953125 -1.941406 6.265625 -3.171875 L 7.578125 -8.4375 L 9.203125 -8.4375 L 7.890625 -3.15625 C 7.617188 -2.070312 7.132812 -1.253906 6.4375 -0.703125 C 5.738281 -0.148438 4.804688 0.125 3.640625 0.125 Z M 3.640625 0.125 "/></g></g></g><g fill="#000000" fill-opacity="1"><g transform="translate(203.950473, 209.798703)"><g><path d="M 8.0625 -8.4375 L 7.71875 -7.03125 L 5.28125 -7.03125 L 3.53125 0 L 1.875 0 L 3.625 -7.03125 L 1.1875 -7.03125 L 1.546875 -8.4375 Z M 8.0625 -8.4375 "/></g></g></g><g fill="#000000" fill-opacity="1"><g transform="translate(210.586678, 209.798703)"><g><path d="M 3.765625 0.125 C 2.992188 0.125 2.351562 -0.03125 1.84375 -0.34375 C 1.332031 -0.664062 0.988281 -1.148438 0.8125 -1.796875 C 0.644531 -2.441406 0.679688 -3.25 0.921875 -4.21875 C 1.160156 -5.175781 1.523438 -5.976562 2.015625 -6.625 C 2.515625 -7.28125 3.097656 -7.765625 3.765625 -8.078125 C 4.441406 -8.390625 5.164062 -8.546875 5.9375 -8.546875 C 6.707031 -8.546875 7.347656 -8.390625 7.859375 -8.078125 C 8.367188 -7.765625 8.707031 -7.28125 8.875 -6.625 C 9.050781 -5.976562 9.019531 -5.175781 8.78125 -4.21875 C 8.539062 -3.25 8.171875 -2.4375 7.671875 -1.78125 C 7.179688 -1.132812 6.601562 -0.65625 5.9375 -0.34375 C 5.269531 -0.03125 4.546875 0.125 3.765625 0.125 Z M 4.140625 -1.328125 C 4.847656 -1.328125 5.445312 -1.554688 5.9375 -2.015625 C 6.425781 -2.472656 6.800781 -3.207031 7.0625 -4.21875 C 7.3125 -5.226562 7.304688 -5.960938 7.046875 -6.421875 C 6.785156 -6.878906 6.296875 -7.109375 5.578125 -7.109375 C 4.859375 -7.109375 4.25 -6.878906 3.75 -6.421875 C 3.257812 -5.960938 2.890625 -5.226562 2.640625 -4.21875 C 2.390625 -3.207031 2.394531 -2.472656 2.65625 -2.015625 C 2.925781 -1.554688 3.421875 -1.328125 4.140625 -1.328125 Z M 4.140625 -1.328125 "/></g></g></g><g fill="#000000" fill-opacity="1"><g transform="translate(219.420423, 209.798703)"><g><path d="M 1.828125 0 L 0.296875 0 L 2.40625 -8.4375 L 4.578125 -8.4375 L 5.171875 -2.234375 L 5.296875 -2.234375 L 8.96875 -8.4375 L 11.09375 -8.4375 L 8.984375 0 L 7.40625 0 L 8.796875 -5.578125 L 8.65625 -5.59375 L 5.3125 0 L 3.921875 0 L 3.375 -5.59375 L 3.21875 -5.578125 Z M 1.828125 0 "/></g></g></g><g fill="#000000" fill-opacity="1"><g transform="translate(229.955676, 209.798703)"><g><path d="M 3.765625 0.125 C 2.992188 0.125 2.351562 -0.03125 1.84375 -0.34375 C 1.332031 -0.664062 0.988281 -1.148438 0.8125 -1.796875 C 0.644531 -2.441406 0.679688 -3.25 0.921875 -4.21875 C 1.160156 -5.175781 1.523438 -5.976562 2.015625 -6.625 C 2.515625 -7.28125 3.097656 -7.765625 3.765625 -8.078125 C 4.441406 -8.390625 5.164062 -8.546875 5.9375 -8.546875 C 6.707031 -8.546875 7.347656 -8.390625 7.859375 -8.078125 C 8.367188 -7.765625 8.707031 -7.28125 8.875 -6.625 C 9.050781 -5.976562 9.019531 -5.175781 8.78125 -4.21875 C 8.539062 -3.25 8.171875 -2.4375 7.671875 -1.78125 C 7.179688 -1.132812 6.601562 -0.65625 5.9375 -0.34375 C 5.269531 -0.03125 4.546875 0.125 3.765625 0.125 Z M 4.140625 -1.328125 C 4.847656 -1.328125 5.445312 -1.554688 5.9375 -2.015625 C 6.425781 -2.472656 6.800781 -3.207031 7.0625 -4.21875 C 7.3125 -5.226562 7.304688 -5.960938 7.046875 -6.421875 C 6.785156 -6.878906 6.296875 -7.109375 5.578125 -7.109375 C 4.859375 -7.109375 4.25 -6.878906 3.75 -6.421875 C 3.257812 -5.960938 2.890625 -5.226562 2.640625 -4.21875 C 2.390625 -3.207031 2.394531 -2.472656 2.65625 -2.015625 C 2.925781 -1.554688 3.421875 -1.328125 4.140625 -1.328125 Z M 4.140625 -1.328125 "/></g></g></g><g fill="#000000" fill-opacity="1"><g transform="translate(238.789421, 209.798703)"><g><path d="M 8.0625 -8.4375 L 7.71875 -7.03125 L 5.28125 -7.03125 L 3.53125 0 L 1.875 0 L 3.625 -7.03125 L 1.1875 -7.03125 L 1.546875 -8.4375 Z M 8.0625 -8.4375 "/></g></g></g><g fill="#000000" fill-opacity="1"><g transform="translate(245.425627, 209.798703)"><g><path d="M 1.96875 0 L 0.296875 0 L 2.40625 -8.4375 L 4.078125 -8.4375 Z M 1.96875 0 "/></g></g></g><g fill="#000000" fill-opacity="1"><g transform="translate(248.935672, 209.798703)"><g><path d="M 4.21875 0 L 2.203125 0 L 1.453125 -8.4375 L 3.234375 -8.4375 L 3.703125 -2.140625 L 3.859375 -2.140625 L 7.4375 -8.4375 L 9.171875 -8.4375 Z M 4.21875 0 "/></g></g></g><g fill="#000000" fill-opacity="1"><g transform="translate(256.587014, 209.798703)"><g><path d="M 2.890625 -3.703125 L 2.3125 -1.390625 L 6.34375 -1.390625 L 6 0 L 0.296875 0 L 2.40625 -8.4375 L 8 -8.4375 L 7.65625 -7.03125 L 3.71875 -7.03125 L 3.234375 -5.0625 L 6.671875 -5.0625 L 6.328125 -3.703125 Z M 2.890625 -3.703125 "/></g></g></g><path stroke-linecap="butt" transform="matrix(0.75319, 0, 0, 0.75, 101.686925, 203.423703)" fill="none" stroke-linejoin="miter" d="M 0.00076339 2.497562 L 106.552837 2.497562 " stroke="#f40808" stroke-width="5" stroke-opacity="1" stroke-miterlimit="4"/><path stroke-linecap="butt" transform="matrix(0.749724, 0, 0, 0.75, 107.860721, 152.919746)" fill="none" stroke-linejoin="miter" d="M -0.00179482 2.497631 L 85.039882 2.497631 " stroke="#f40808" stroke-width="5" stroke-opacity="1" stroke-miterlimit="4"/><path stroke-linecap="butt" transform="matrix(0.752487, 0, 0, 0.75, 232.682773, 152.919746)" fill="none" stroke-linejoin="miter" d="M 0.00109042 2.497631 L 51.839601 2.497631 " stroke="#f40808" stroke-width="5" stroke-opacity="1" stroke-miterlimit="4"/></svg>